# xmcd
#
# Track frame offsets: 
#        150
#        19382
#        34157
#        49470
#        63144
#        78601
#        94126
#        110570
#        127670
#        144987
#        161171
#        175038
#        191933
#        212177
#        229340
#        247493
#        260190
#        313072
#
# Disc length: 4433 seconds
#
# Revision: 0
# Processed by: cddbd v1.5.2PL0 Copyright (c) Steve Scherf et al.
# Submitted via: ExactAudioCopy v0.95b3
#
DISCID=15114f12
DTITLE=Spieltrieb - Regionalexzess
DYEAR=2005
DGENRE=Ballad
TTITLE0=Millionen fröhlicher Gesichter
TTITLE1=In letzter Zeit
TTITLE2=Zeit für's Beamen
TTITLE3=Dieser Text
TTITLE4=Student 2010
TTITLE5=Ein Stück vom Glück
TTITLE6=Von Suffix-Innen
TTITLE7=Lady
TTITLE8=Wir bleiben still
TTITLE9=Resümee
TTITLE10=Ich will warm
TTITLE11=Die sehr traurige Ballade kalter Pizza
TTITLE12=Mein Sumpfgenosse 1
TTITLE13=Und
TTITLE14=So viele Gesichter
TTITLE15=Schlafentzug
TTITLE16=Lithargie
TTITLE17=VIDEO Schönes Gesicht
EXTD=
EXTT0=
EXTT1=
EXTT2=
EXTT3=
EXTT4=
EXTT5=
EXTT6=
EXTT7=
EXTT8=
EXTT9=
EXTT10=
EXTT11=
EXTT12=
EXTT13=
EXTT14=
EXTT15=
EXTT16=
EXTT17=
PLAYORDER=
